<svg id="Layer_1" data-name="Layer 1" xmlns="http://www.w3.org/2000/svg" viewBox="0 0 371.78 347.05"><defs><style>.cls-1{fill:#fff;}.cls-1,.cls-2,.cls-3{stroke:#231f20;stroke-miterlimit:10;}.cls-2{fill:#a3d180;}.cls-3{fill:#84caf0;}</style></defs><circle class="cls-1" cx="42.36" cy="169.64" r="21.16"/><circle class="cls-2" cx="130.49" cy="96.82" r="14.69"/><circle class="cls-2" cx="93.37" cy="154.61" r="24.23"/><circle class="cls-3" cx="51.05" cy="235.26" r="30.92"/><circle class="cls-2" cx="131.34" cy="206.97" r="30.92"/><circle class="cls-2" cx="145.95" cy="136.36" r="15.46"/><circle class="cls-3" cx="165.25" cy="266.18" r="15.46"/><circle class="cls-2" cx="184.77" cy="235.26" r="15.46"/><circle class="cls-1" cx="74.31" cy="302.42" r="15.46"/><circle class="cls-3" cx="115.88" cy="266.18" r="15.46"/><circle class="cls-2" cx="207.79" cy="192.06" r="19.63"/><circle class="cls-2" cx="192.33" cy="101.71" r="30.92"/><circle class="cls-1" cx="120.07" cy="313.01" r="20.67"/><circle class="cls-3" cx="210.56" cy="262.89" r="11.4"/><circle class="cls-3" cx="246.53" cy="227.78" r="24.86"/><circle class="cls-1" cx="229.5" cy="313.01" r="26.04"/><circle class="cls-3" cx="271.39" cy="117.17" r="26.04"/><circle class="cls-1" cx="254.5" cy="181.59" r="11.4"/><circle class="cls-1" cx="259.93" cy="274.29" r="11.4"/><circle class="cls-3" cx="304.44" cy="183.07" r="21.53"/><circle class="cls-1" cx="171.06" cy="320.51" r="26.04"/><circle class="cls-2" cx="183.89" cy="160.05" r="11.4"/><circle class="cls-1" cx="229.5" cy="152.53" r="11.4"/><circle class="cls-2" cx="91.59" cy="109.49" r="15.46"/><circle class="cls-1" cx="297.43" cy="242.06" r="19.63"/><circle class="cls-2" cx="114.23" cy="26.68" r="16.26"/><circle class="cls-2" cx="157.49" cy="53.71" r="24.86"/><circle class="cls-3" cx="167.88" cy="14.26" r="11.4"/><circle class="cls-3" cx="237.67" cy="23.31" r="11.4"/><circle class="cls-3" cx="237.67" cy="87.92" r="11.4"/><circle class="cls-3" cx="321.04" cy="143.21" r="11.4"/><circle class="cls-2" cx="99.13" cy="61.93" r="11.4"/><circle class="cls-1" cx="55.13" cy="109.49" r="11.4"/><circle class="cls-2" cx="70.2" cy="73.33" r="11.4"/><circle class="cls-3" cx="43.73" cy="281.64" r="11.4"/><circle class="cls-2" cx="81.97" cy="194.47" r="11.4"/><circle class="cls-1" cx="296.55" cy="288.09" r="21.82"/><circle class="cls-3" cx="283.53" cy="64.43" r="20.19"/><circle class="cls-3" cx="329.69" cy="96.11" r="24.7"/><circle class="cls-1" cx="354.39" cy="185.78" r="16.89"/><circle class="cls-1" cx="356.78" cy="144.03" r="11.4"/><circle class="cls-1" cx="350.46" cy="231.2" r="11.4"/><circle class="cls-1" cx="339.06" cy="266.27" r="11.4"/><circle class="cls-3" cx="11.9" cy="197.19" r="11.4"/><circle class="cls-3" cx="203.46" cy="49.02" r="11.4"/><circle class="cls-3" cx="203.95" cy="11.9" r="11.4"/><circle class="cls-1" cx="271.39" cy="30.32" r="11.4"/><circle class="cls-1" cx="318.37" cy="54.33" r="11.4"/><circle class="cls-1" cx="41.64" cy="73.33" r="11.04"/><circle class="cls-3" cx="247.46" cy="50.53" r="11.4"/><circle class="cls-1" cx="21.19" cy="130.38" r="11.4"/><circle class="cls-1" cx="70.56" cy="41.23" r="11.4"/><circle class="cls-1" cx="23.31" cy="101.71" r="11.4"/><circle class="cls-2" cx="157.49" cy="172.43" r="8.21"/></svg>